<svg id="Capa_1" data-name="Capa 1" xmlns="http://www.w3.org/2000/svg" xmlns:xlink="http://www.w3.org/1999/xlink" viewBox="0 0 1922.21 1079.88"><defs><style>.cls-1{fill:#0b0b0b;}.cls-10,.cls-11,.cls-12,.cls-13,.cls-14,.cls-15,.cls-16,.cls-17,.cls-18,.cls-19,.cls-2,.cls-20,.cls-21,.cls-22,.cls-23,.cls-24,.cls-25,.cls-26,.cls-27,.cls-28,.cls-29,.cls-3,.cls-30,.cls-31,.cls-32,.cls-33,.cls-34,.cls-35,.cls-36,.cls-37,.cls-38,.cls-39,.cls-4,.cls-40,.cls-41,.cls-42,.cls-43,.cls-44,.cls-45,.cls-46,.cls-47,.cls-48,.cls-49,.cls-5,.cls-50,.cls-51,.cls-52,.cls-53,.cls-54,.cls-55,.cls-6,.cls-7,.cls-8,.cls-9{fill:none;stroke-miterlimit:10;}.cls-2{stroke:url(#Degradado_sin_nombre);}.cls-3{stroke:url(#Degradado_sin_nombre_2);}.cls-4{stroke:url(#Degradado_sin_nombre_3);}.cls-5{stroke:url(#Degradado_sin_nombre_4);}.cls-6{stroke:url(#Degradado_sin_nombre_5);}.cls-7{stroke:url(#Degradado_sin_nombre_6);}.cls-8{stroke:url(#Degradado_sin_nombre_7);}.cls-9{stroke:url(#Degradado_sin_nombre_8);}.cls-10{stroke:url(#Degradado_sin_nombre_9);}.cls-11{stroke:url(#Degradado_sin_nombre_10);}.cls-12{stroke:url(#Degradado_sin_nombre_11);}.cls-13{stroke:url(#Degradado_sin_nombre_12);}.cls-14{stroke:url(#Degradado_sin_nombre_13);}.cls-15{stroke:url(#Degradado_sin_nombre_14);}.cls-16{stroke:url(#Degradado_sin_nombre_15);}.cls-17{stroke:url(#Degradado_sin_nombre_16);}.cls-18{stroke:url(#Degradado_sin_nombre_17);}.cls-19{stroke:url(#Degradado_sin_nombre_18);}.cls-20{stroke:url(#Degradado_sin_nombre_19);}.cls-21{stroke:url(#Degradado_sin_nombre_20);}.cls-22{stroke:url(#Degradado_sin_nombre_21);}.cls-23{stroke:url(#Degradado_sin_nombre_22);}.cls-24{stroke:url(#Degradado_sin_nombre_23);}.cls-25{stroke:url(#Degradado_sin_nombre_24);}.cls-26{stroke:url(#Degradado_sin_nombre_25);}.cls-27{stroke:url(#Degradado_sin_nombre_26);}.cls-28{stroke:url(#Degradado_sin_nombre_27);}.cls-29{stroke:url(#Degradado_sin_nombre_28);}.cls-30{stroke:url(#Degradado_sin_nombre_29);}.cls-31{stroke:url(#Degradado_sin_nombre_30);}.cls-32{stroke:url(#Degradado_sin_nombre_31);}.cls-33{stroke:url(#Degradado_sin_nombre_32);}.cls-34{stroke:url(#Degradado_sin_nombre_33);}.cls-35{stroke:url(#Degradado_sin_nombre_34);}.cls-36{stroke:url(#Degradado_sin_nombre_35);}.cls-37{stroke:url(#Degradado_sin_nombre_36);}.cls-38{stroke:url(#Degradado_sin_nombre_37);}.cls-39{stroke:url(#Degradado_sin_nombre_38);}.cls-40{stroke:url(#Degradado_sin_nombre_39);}.cls-41{stroke:url(#Degradado_sin_nombre_40);}.cls-42{stroke:url(#Degradado_sin_nombre_41);}.cls-43{stroke:url(#Degradado_sin_nombre_42);}.cls-44{stroke:url(#Degradado_sin_nombre_43);}.cls-45{stroke:url(#Degradado_sin_nombre_44);}.cls-46{stroke:url(#Degradado_sin_nombre_45);}.cls-47{stroke:url(#Degradado_sin_nombre_46);}.cls-48{stroke:url(#Degradado_sin_nombre_47);}.cls-49{stroke:url(#Degradado_sin_nombre_48);}.cls-50{stroke:url(#Degradado_sin_nombre_49);}.cls-51{stroke:url(#Degradado_sin_nombre_50);}.cls-52{stroke:url(#Degradado_sin_nombre_51);}.cls-53{stroke:url(#Degradado_sin_nombre_52);}.cls-54{stroke:url(#Degradado_sin_nombre_53);}.cls-55{stroke:url(#Degradado_sin_nombre_54);}.cls-56{opacity:0.04;}.cls-57{fill:#fff;}</style><linearGradient id="Degradado_sin_nombre" x1="0.38" y1="240.64" x2="1780.96" y2="240.64" gradientTransform="matrix(1, 0, 0, -1, 0.99, 1080.04)" gradientUnits="userSpaceOnUse"><stop offset="0" stop-color="#1a1a1a"/><stop offset="1" stop-color="#333"/></linearGradient><linearGradient id="Degradado_sin_nombre_2" x1="0.39" y1="234.93" x2="1770.2" y2="234.93" xlink:href="#Degradado_sin_nombre"/><linearGradient id="Degradado_sin_nombre_3" x1="0.4" y1="229.29" x2="1759.49" y2="229.29" xlink:href="#Degradado_sin_nombre"/><linearGradient id="Degradado_sin_nombre_4" x1="0.41" y1="223.66" x2="1748.71" y2="223.66" xlink:href="#Degradado_sin_nombre"/><linearGradient id="Degradado_sin_nombre_5" x1="0.42" y1="217.94" x2="1738" y2="217.94" xlink:href="#Degradado_sin_nombre"/><linearGradient id="Degradado_sin_nombre_6" x1="0.43" y1="212.28" x2="1727.24" y2="212.28" xlink:href="#Degradado_sin_nombre"/><linearGradient id="Degradado_sin_nombre_7" x1="0.44" y1="206.62" x2="1716.59" y2="206.62" xlink:href="#Degradado_sin_nombre"/><linearGradient id="Degradado_sin_nombre_8" x1="0.45" y1="200.9" x2="1705.81" y2="200.9" xlink:href="#Degradado_sin_nombre"/><linearGradient id="Degradado_sin_nombre_9" x1="0.46" y1="195.27" x2="1695.1" y2="195.27" xlink:href="#Degradado_sin_nombre"/><linearGradient id="Degradado_sin_nombre_10" x1="0.47" y1="189.6" x2="1684.4" y2="189.6" xlink:href="#Degradado_sin_nombre"/><linearGradient id="Degradado_sin_nombre_11" x1="0.49" y1="183.85" x2="1673.63" y2="183.85" xlink:href="#Degradado_sin_nombre"/><linearGradient id="Degradado_sin_nombre_12" x1="0.5" y1="178.21" x2="1662.88" y2="178.21" xlink:href="#Degradado_sin_nombre"/><linearGradient id="Degradado_sin_nombre_13" x1="0.48" y1="172.8" x2="1652.18" y2="172.8" xlink:href="#Degradado_sin_nombre"/><linearGradient id="Degradado_sin_nombre_14" x1="0.47" y1="167.83" x2="1641.45" y2="167.83" xlink:href="#Degradado_sin_nombre"/><linearGradient id="Degradado_sin_nombre_15" x1="0.45" y1="163.42" x2="1630.71" y2="163.42" xlink:href="#Degradado_sin_nombre"/><linearGradient id="Degradado_sin_nombre_16" x1="0.44" y1="159.64" x2="1620" y2="159.64" xlink:href="#Degradado_sin_nombre"/><linearGradient id="Degradado_sin_nombre_17" x1="0.42" y1="156.59" x2="1609.21" y2="156.59" xlink:href="#Degradado_sin_nombre"/><linearGradient id="Degradado_sin_nombre_18" x1="0.4" y1="154.31" x2="1598.53" y2="154.31" xlink:href="#Degradado_sin_nombre"/><linearGradient id="Degradado_sin_nombre_19" x1="0.39" y1="153.2" x2="1587.74" y2="153.2" xlink:href="#Degradado_sin_nombre"/><linearGradient id="Degradado_sin_nombre_20" x1="0.37" y1="152" x2="1577.06" y2="152" xlink:href="#Degradado_sin_nombre"/><linearGradient id="Degradado_sin_nombre_21" x1="0.35" y1="152.62" x2="1566.37" y2="152.62" xlink:href="#Degradado_sin_nombre"/><linearGradient id="Degradado_sin_nombre_22" x1="0.33" y1="155.38" x2="1555.55" y2="155.38" xlink:href="#Degradado_sin_nombre"/><linearGradient id="Degradado_sin_nombre_23" x1="0.31" y1="158.29" x2="1544.87" y2="158.29" xlink:href="#Degradado_sin_nombre"/><linearGradient id="Degradado_sin_nombre_24" x1="0.29" y1="161.16" x2="1534.06" y2="161.16" xlink:href="#Degradado_sin_nombre"/><linearGradient id="Degradado_sin_nombre_25" x1="0.27" y1="164.05" x2="1523.34" y2="164.05" xlink:href="#Degradado_sin_nombre"/><linearGradient id="Degradado_sin_nombre_26" x1="0.25" y1="166.99" x2="1512.58" y2="166.99" xlink:href="#Degradado_sin_nombre"/><linearGradient id="Degradado_sin_nombre_27" x1="0.23" y1="169.92" x2="1501.87" y2="169.92" xlink:href="#Degradado_sin_nombre"/><linearGradient id="Degradado_sin_nombre_28" x1="1326.51" y1="809.33" x2="1921.22" y2="809.33" xlink:href="#Degradado_sin_nombre"/><linearGradient id="Degradado_sin_nombre_29" x1="1337.13" y1="813.67" x2="1921.22" y2="813.67" xlink:href="#Degradado_sin_nombre"/><linearGradient id="Degradado_sin_nombre_30" x1="1347.58" y1="817.92" x2="1921.21" y2="817.92" xlink:href="#Degradado_sin_nombre"/><linearGradient id="Degradado_sin_nombre_31" x1="1358.12" y1="822.19" x2="1921.2" y2="822.19" xlink:href="#Degradado_sin_nombre"/><linearGradient id="Degradado_sin_nombre_32" x1="1368.65" y1="826.48" x2="1921.19" y2="826.48" xlink:href="#Degradado_sin_nombre"/><linearGradient id="Degradado_sin_nombre_33" x1="1379.2" y1="830.76" x2="1921.18" y2="830.76" xlink:href="#Degradado_sin_nombre"/><linearGradient id="Degradado_sin_nombre_34" x1="1389.73" y1="835.05" x2="1921.18" y2="835.05" xlink:href="#Degradado_sin_nombre"/><linearGradient id="Degradado_sin_nombre_35" x1="1400.27" y1="839.33" x2="1921.17" y2="839.33" xlink:href="#Degradado_sin_nombre"/><linearGradient id="Degradado_sin_nombre_36" x1="1410.8" y1="843.62" x2="1921.16" y2="843.62" xlink:href="#Degradado_sin_nombre"/><linearGradient id="Degradado_sin_nombre_37" x1="1421.34" y1="847.9" x2="1921.15" y2="847.9" xlink:href="#Degradado_sin_nombre"/><linearGradient id="Degradado_sin_nombre_38" x1="1431.9" y1="852.19" x2="1921.13" y2="852.19" xlink:href="#Degradado_sin_nombre"/><linearGradient id="Degradado_sin_nombre_39" x1="1442.42" y1="856.48" x2="1921.12" y2="856.48" xlink:href="#Degradado_sin_nombre"/><linearGradient id="Degradado_sin_nombre_40" x1="1452.99" y1="860.82" x2="1921.11" y2="860.82" xlink:href="#Degradado_sin_nombre"/><linearGradient id="Degradado_sin_nombre_41" x1="1463.5" y1="865.04" x2="1921.1" y2="865.04" xlink:href="#Degradado_sin_nombre"/><linearGradient id="Degradado_sin_nombre_42" x1="1474.03" y1="869.31" x2="1921.09" y2="869.31" xlink:href="#Degradado_sin_nombre"/><linearGradient id="Degradado_sin_nombre_43" x1="1484.57" y1="873.6" x2="1921.07" y2="873.6" xlink:href="#Degradado_sin_nombre"/><linearGradient id="Degradado_sin_nombre_44" x1="1494.18" y1="877.9" x2="1921.06" y2="877.9" xlink:href="#Degradado_sin_nombre"/><linearGradient id="Degradado_sin_nombre_45" x1="1503.01" y1="882.2" x2="1921.04" y2="882.2" xlink:href="#Degradado_sin_nombre"/><linearGradient id="Degradado_sin_nombre_46" x1="1511.19" y1="886.5" x2="1921.03" y2="886.5" xlink:href="#Degradado_sin_nombre"/><linearGradient id="Degradado_sin_nombre_47" x1="1519" y1="890.79" x2="1921.01" y2="890.79" xlink:href="#Degradado_sin_nombre"/><linearGradient id="Degradado_sin_nombre_48" x1="1526.42" y1="895.06" x2="1921.01" y2="895.06" xlink:href="#Degradado_sin_nombre"/><linearGradient id="Degradado_sin_nombre_49" x1="1533.44" y1="899.02" x2="1921.02" y2="899.02" xlink:href="#Degradado_sin_nombre"/><linearGradient id="Degradado_sin_nombre_50" x1="1540.01" y1="902.62" x2="1921.04" y2="902.62" xlink:href="#Degradado_sin_nombre"/><linearGradient id="Degradado_sin_nombre_51" x1="1546.19" y1="905.84" x2="1921.06" y2="905.84" xlink:href="#Degradado_sin_nombre"/><linearGradient id="Degradado_sin_nombre_52" x1="1551.64" y1="908.73" x2="1921.08" y2="908.73" xlink:href="#Degradado_sin_nombre"/><linearGradient id="Degradado_sin_nombre_53" x1="1555.38" y1="911.24" x2="1921.1" y2="911.24" xlink:href="#Degradado_sin_nombre"/><linearGradient id="Degradado_sin_nombre_54" x1="1557.61" y1="913.37" x2="1921.12" y2="913.37" xlink:href="#Degradado_sin_nombre"/></defs><rect class="cls-1" width="1922.2" height="1079.76"/><path class="cls-2" d="M1.49,599.54c132.5,32.58,190.5,89.36,219,136,38.43,63,36.89,130.51,91,151,36.1,13.67,83.59,1.34,108-5A274.57,274.57,0,0,0,486,854.8c57.23-32,75.37-70.9,155.51-92.26,93.85-25,177.91,2,254,26,152.09,48,147,102.38,243,120,101.7,18.66,273.44-107,385-102,63.23,2.84,153.8,50.6,258,273"/><path class="cls-3" d="M1.49,610.89C131.58,640.49,190,693.67,219.1,737.74c39.31,59.43,39.21,124.12,92.71,143.4,36.05,13,82.85,1.11,107.16-4.87a282,282,0,0,0,65.57-25C541,821.67,559,785.83,638,766.58a299.11,299.11,0,0,1,54.15-8c59.62-3.54,115,9.88,167.47,25.37q15.23,4.5,30.28,9.13c102.88,31.48,133.58,66.79,175,90,18.43,10.3,37.61,18.66,66.75,23.58a120.22,120.22,0,0,0,20.49,1.61c61.94-.26,141.16-36.65,215.68-65.89,8.27-3.24,16.93-6.36,25.48-9.36,43.3-15.24,84.82-26.54,120.45-23.95,64.72,4.7,156,55.77,257,270.53"/><path class="cls-4" d="M1.49,622.23c127.73,26.62,186.38,76.21,216.23,117.71,40.17,55.85,41.54,117.73,94.4,135.8,36,12.3,82.11.87,106.34-4.73a291.68,291.68,0,0,0,64.63-23.23c55.62-27.25,73.56-60,151.32-77.16A309.8,309.8,0,0,1,688,763.76c58.94-2.56,113.65,10.08,166.16,25.07q15,4.29,30.1,8.75c100.29,29.72,131.85,64,174.33,85.26,19,9.53,37.41,17.39,66.24,21.81a117,117,0,0,0,20.31,1.35c63-1.12,141.73-35.89,214.27-64.15,7.94-3.09,16.71-6,25.33-8.91,42.73-14.29,83.81-25,119.3-21.46,66.22,6.61,158.2,60.94,256,268.06"/><path class="cls-5" d="M1.49,633.58c125.36,23.64,184.27,69.61,214.84,108.56,41,52.26,43.88,111.33,96.11,128.19,36,11.62,81.36.65,105.5-4.59a304.2,304.2,0,0,0,63.71-21.47c54.8-24.88,72.65-54.6,149.22-69.6A318.11,318.11,0,0,1,683.81,769c58.27-1.67,112.29,10.27,164.87,24.78,9.86,2.72,19.86,5.49,29.9,8.37,97.7,28,130.14,61.1,173.63,80.55,19.58,8.75,37.22,16,65.73,20a118.7,118.7,0,0,0,20.12,1.08c64-2,142.32-35.14,212.87-62.41,7.62-3,16.49-5.71,25.18-8.46,42.15-13.36,82.81-23.43,118.14-19,67.75,8.55,160.41,66.1,255,265.59"/><path class="cls-6" d="M1.49,644.92c123,20.67,182.15,63,213.46,99.42,41.82,48.65,46.21,104.92,97.8,120.59,35.93,10.92,80.62.4,104.67-4.45a320.53,320.53,0,0,0,62.79-19.72c53.95-22.51,71.74-49.16,147.11-62a331.56,331.56,0,0,1,52.35-4.55c57.58-.78,110.92,10.48,163.57,24.48,9.71,2.59,19.65,5.21,29.71,8C968,833,1001.38,864.88,1045.88,882.49c20.16,8,37,14.76,65.21,18.28a118.63,118.63,0,0,0,19.94.82c65.1-2.88,142.89-34.39,211.45-60.67,7.3-2.8,16.27-5.38,25-8,41.57-12.45,81.83-21.84,117-16.49,69.29,10.53,162.6,71.27,254.06,263.12"/><path class="cls-7" d="M1.49,656.27c120.63,17.69,180,56.37,212.07,90.28,42.6,45,48.57,98.48,99.51,113,35.9,10.22,79.87.16,103.84-4.32,27.72-5.18,47.78-12.62,61.86-18,53.09-20.15,70.83-43.73,145-54.5,17.21-2.53,34.41-3.24,51.74-3.39,56.9-.51,109.55,10.68,162.27,24.19,9.57,2.45,19.46,4.92,29.52,7.6,92.46,24.66,126.74,55.38,172.23,71.15,20.74,7.19,36.82,13.47,64.7,16.52a119.54,119.54,0,0,0,19.75.55c66.16-3.79,143.48-33.64,210-58.93,7-2.65,16-5.06,24.88-7.55,41-11.55,80.83-20.21,115.84-14,70.85,12.57,164.8,76.44,253.08,260.66"/><path class="cls-8" d="M1.49,667.62c118.27,14.7,177.82,49.73,210.69,81.13,43.34,41.4,50.93,92,101.2,105.38,35.88,9.51,79.12-.09,103-4.19,27.23-4.67,47-11.45,60.94-16.2,52.22-17.8,69.92-38.3,142.91-47a370.14,370.14,0,0,1,51.14-2.23c56.21,1,108.17,10.9,161,23.89,9.42,2.32,19.25,4.64,29.33,7.22,89.81,23,125.06,52.51,171.53,66.45,21.33,6.4,36.61,12.18,64.18,14.75a119.39,119.39,0,0,0,19.56.28c67.23-4.7,144.06-32.88,208.64-57.18,6.65-2.51,15.82-4.74,24.74-7.1,40.35-10.67,79.84-18.56,114.69-11.52,72.4,14.63,167,81.61,252.09,258.19"/><path class="cls-9" d="M1.49,679c115.9,11.73,175.62,43.1,209.3,72,44,37.77,53.3,85.61,102.91,97.78,35.85,8.79,78.36-.34,102.17-4,26.74-4.17,46.22-10.3,60-14.45,51.33-15.45,69-32.87,140.81-39.39a396.34,396.34,0,0,1,50.53-1.08c55.53,1.86,106.79,11.12,159.68,23.6,9.26,2.18,19,4.35,29.13,6.84,87.15,21.45,123.39,49.61,170.83,61.74,21.93,5.61,36.41,10.89,63.67,13a120.57,120.57,0,0,0,19.38,0c68.29-5.63,144.63-32.12,207.23-55.44,6.32-2.36,15.59-4.42,24.59-6.64,39.73-9.82,78.85-16.89,113.53-9,74,16.74,169.2,86.77,251.1,255.72"/><path class="cls-10" d="M1.49,690.31C115,699,174.87,726.76,209.41,753.15c44.7,34.15,55.67,79.15,104.6,90.17,35.84,8.08,77.61-.59,101.35-3.91,26.25-3.67,45.43-9.14,59.08-12.69,50.43-13.12,68.11-27.43,138.72-31.84a433.17,433.17,0,0,1,49.93.07c54.83,2.74,105.41,11.36,158.37,23.31,9.12,2.06,18.84,4.08,28.94,6.46,84.48,19.9,121.73,46.71,170.14,57,22.52,4.81,36.2,9.6,63.15,11.22a123,123,0,0,0,19.19-.25c69.36-6.58,145.2-31.37,205.82-53.71,6-2.21,15.37-4.1,24.45-6.18,39.1-9,77.86-15.18,112.37-6.55,75.53,18.89,171.4,91.94,250.12,253.25"/><path class="cls-11" d="M1.49,701.66c111.17,5.77,171.1,29.82,206.53,53.69,45.32,30.54,58,72.68,106.31,82.57,35.83,7.35,76.85-.85,100.51-3.77,25.75-3.19,44.64-8,58.16-10.94,49.51-10.8,67.2-22,136.62-24.29A484,484,0,0,1,659,800.15c54.14,3.61,104,11.6,157.07,23,9,1.93,18.63,3.8,28.75,6.08,81.79,18.4,120.07,43.8,169.43,52.34,23.12,4,36,8.32,62.64,9.46a126.88,126.88,0,0,0,19-.52c70.42-7.55,145.77-30.61,204.41-52,5.67-2.06,15.14-3.79,24.29-5.73,38.47-8.14,76.87-13.46,111.23-4.06,77.08,21.08,173.6,97.1,249.13,250.78"/><path class="cls-12" d="M1.49,713c108.81,2.79,168.79,23.2,205.15,44.55,45.88,27,60.43,66.19,108,75,35.82,6.61,76.08-1.12,99.67-3.64,25.26-2.7,43.84-6.84,57.24-9.18,48.57-8.5,66.29-16.57,134.52-16.74,15.77-.09,31.93,1,48.72,2.39,53.45,4.46,102.63,11.85,155.78,22.72,8.81,1.8,18.41,3.52,28.55,5.69,79.09,16.93,118.42,40.87,168.73,47.65,23.72,3.19,35.8,7,62.13,7.68a128.66,128.66,0,0,0,18.82-.78c71.49-8.53,146.34-29.85,203-50.23,5.35-1.92,14.91-3.48,24.15-5.27,37.83-7.35,75.87-11.72,110.07-1.58,78.64,23.31,175.8,102.27,248.15,248.31"/><path class="cls-13" d="M1.49,724.35c106.44-.19,166.45,16.59,203.76,35.4,46.4,23.39,62.83,59.69,109.71,67.37,35.82,5.86,75.32-1.39,98.84-3.5,24.76-2.23,43-5.7,56.32-7.43C517.74,810,535.5,805.06,602.53,807c15.5.38,31.44,1.86,48.13,3.54,52.76,5.31,101.23,12.1,154.48,22.42,8.65,1.68,18.2,3.25,28.36,5.31,76.38,15.49,116.76,37.94,168,43,24.32,2.37,35.59,5.38,61.61,5.92a123.4,123.4,0,0,0,18.63-1.06c72.56-9.52,146.91-29.09,201.6-48.48,5-1.78,14.67-3.18,24-4.82,37.17-6.56,74.87-10,108.92.91,80.17,25.58,178,107.44,247.16,245.84"/><path class="cls-14" d="M1.49,735.69c104.07-3.16,164.07,10,202.38,26.26,46.87,19.88,65.22,53.18,111.41,59.77,35.82,5.11,74.56-1.67,98-3.37,24.26-1.76,42.23-4.55,55.39-5.67,46.66-4,64.47-5.57,130.31-1.63,15.21.91,30.94,2.74,47.52,4.7,52.07,6.16,99.84,12.37,153.18,22.13,8.51,1.55,18,3,28.17,4.93C901.52,856.9,943,877.79,995.19,881c24.92,1.55,35.38,4.46,61.1,4.15a138.87,138.87,0,0,0,18.45-1.32c73.62-10.53,147.46-28.33,200.18-46.74,4.7-1.64,14.44-2.88,23.86-4.37,36.52-5.78,73.85-8.18,107.76,3.4,81.7,27.88,180.2,112.6,246.18,243.37"/><path class="cls-15" d="M1.49,747c101.71-6.15,161.67,3.48,201,17.12,47.32,16.4,67.63,46.64,113.11,52.15,35.83,4.35,73.79-1.94,97.18-3.23,23.76-1.3,41.5-2.43,54.46-3.91,45.43-5.2,63.56-.13,128.22,5.92,14.92,1.4,30.44,3.62,46.92,5.86,51.38,7,98.44,12.64,151.88,21.83,8.35,1.44,17.77,2.72,28,4.55,70.92,12.73,113.45,32,166.63,33.54,25.52.72,35.17,3.19,60.58,2.39a147,147,0,0,0,18.26-1.59c74.69-11.56,148-27.57,198.78-45,4.37-1.5,14.2-2.58,23.71-3.91,35.86-5,72.84-6.39,106.61,5.87C1480,868.87,1579.19,956.41,1642,1079.54"/><path class="cls-16" d="M1.49,758.39c99.34-9.13,159.25-3,199.61,8,47.74,13,70,40.09,114.81,44.55,35.83,3.57,73-2.24,96.34-3.09s40.64-1.29,53.54-2.16c44.61-3,62.65,5.3,126.12,13.47,14.63,1.88,29.94,4.49,46.31,7,50.69,7.83,97,12.93,150.59,21.54,8.19,1.32,17.56,2.45,27.78,4.16,68.18,11.41,111.83,30.5,165.93,28.84,26.11-.8,35,1.91,60.07.62a156.64,156.64,0,0,0,18.08-1.85c75.74-12.6,148.57-26.81,197.36-43.26,4-1.36,14-2.29,23.56-3.46,35.2-4.31,71.83-4.59,105.46,8.36,84.7,32.62,184.59,122.94,244.21,238.44"/><path class="cls-17" d="M1.49,769.73c97-12.1,156.81-9.45,198.22-1.17,48.15,9.63,72.43,33.53,116.51,37,35.84,2.78,72.32-1.23,95.52-3a380.15,380.15,0,0,1,52.61-.4c43.73,2.64,61.73,10.74,124,21,14.34,2.37,29.45,5.36,45.71,8.18,50,8.65,95.64,13.23,149.28,21.24,8,1.2,17.35,2.2,27.6,3.78,65.42,10.13,110.14,26.08,165.22,24.14,26.73-.94,34.76.64,59.56-1.14a170.47,170.47,0,0,0,17.89-2.12c76.8-13.67,149.12-26,196-41.52,3.71-1.23,13.73-2,23.41-3,34.54-3.59,70.8-2.77,104.3,10.85,86.18,35,186.8,128.11,243.23,236"/><path class="cls-18" d="M1.49,781c94.61-15,154.38-15.81,196.84-10.28,48.56,6.32,74.83,27,118.21,29.35,35.85,2,71.52-1.55,94.68-2.82a301.54,301.54,0,0,1,51.69,1.35c42.75,4.78,60.82,16.16,121.92,28.58,14.06,2.85,28.95,6.22,45.1,9.33,49.31,9.47,94.24,13.54,148,21,7.89,1.08,17.12,1.94,27.4,3.39C868,869.78,913.8,884,969.85,880.33c27.32-1.78,34.55-.63,59-2.91,5.16-.48,11-1.12,17.71-2.39,77.84-14.73,149.66-25.27,194.54-39.77,3.38-1.1,13.5-1.72,23.27-2.55,33.87-2.9,69.76-1,103.15,13.33,87.63,37.48,189,133.27,242.24,233.5"/><path class="cls-19" d="M1.49,792.42c92.25-18.06,152-22.19,195.45-19.46,49,3.07,77.24,20.37,119.91,21.74,35.86,1.16,70.73-1.88,93.85-2.68a251.61,251.61,0,0,1,50.77,3.11c41.77,6.9,59.9,21.59,119.82,36.13,13.77,3.34,28.45,7.09,44.5,10.49,48.62,10.28,92.83,13.86,146.69,20.65,7.73,1,16.9,1.7,27.2,3,59.9,7.67,106.82,20.1,163.83,14.73,27.92-2.62,34.35-1.9,58.53-4.67,5.07-.59,10.84-1.32,17.52-2.66,78.89-15.82,150.2-24.5,193.14-38,3-1,13.26-1.43,23.12-2.09,33.2-2.22,68.72.89,102,15.82,89.07,40,191.19,138.44,241.26,231"/><path class="cls-20" d="M1.49,803.77c89.88-21,149.72-32.46,194.07-28.61,49.24,4.28,79.68,15.85,121.61,14.14,35.84-1.46,69.95-3.49,93-2.55,21.23.87,37.37,2.13,49.83,4.87,40.82,9,59,27,117.72,43.68,13.49,3.83,28,8,43.91,11.65,48,11.09,91.44,14.2,145.36,20.35,7.58.87,16.69,1.46,27,2.64,57.12,6.51,105.15,17.1,163.13,10,28.5-3.47,34.14-3.16,58-6.44,5-.68,10.68-1.51,17.33-2.92,79.94-16.93,150.73-23.73,191.73-36.3,2.72-.83,13-1.16,23-1.64,32.53-1.55,67.67,2.74,100.84,18.31,90.47,42.48,193.39,143.6,240.27,228.56"/><path class="cls-21" d="M1.49,815.12c87.52-24,147.17-34.75,192.68-37.76,49.9-3.29,82.12,9.07,123.31,6.54,35.81-2.2,69.2-3.82,92.19-2.41,20.73,1.27,36.57,3.2,48.91,6.62,39.87,11,58.13,32.33,115.62,51.23,13.21,4.29,27.47,8.82,43.3,12.81,47.26,11.89,90,14.56,144.09,20.06,7.42.75,16.47,1.23,26.82,2.25,54.35,5.39,103.48,14.09,162.43,5.33,29.1-4.32,33.94-4.42,57.51-8.2,4.88-.79,10.51-1.71,17.14-3.19,81-18.06,151.25-23,190.32-34.56,2.38-.71,12.83-.2,22.82-1.18,31.74-3.13,66.62,4.58,99.69,20.79,91.87,45,195.59,148.77,239.29,226.09"/><path class="cls-22" d="M1.49,826.46c85.15-27,144.82-41,191.3-46.9,50.4-6.42,84.44.5,125-1.06,35.87-1.38,68.43-4.17,91.35-2.28,20.24,1.68,35.78,4.28,48,8.38,38.94,13.08,57.22,37.76,113.52,58.79,12.92,4.77,27,9.67,42.7,14C660,870,702,872.28,756.15,877.11c7.27.65,16.24,1,26.63,1.87,51.57,4.3,101.79,11.09,161.73.63,29.68-5.17,33.73-5.68,57-10,4.79-.88,10.36-1.91,17-3.45,82-19.2,151.76-22.18,188.92-32.82,2-.59,12.57,0,22.67-.73,31.14-2.27,65.55,6.44,98.54,23.28,93.23,47.59,197.78,153.94,238.29,223.62"/><path class="cls-23" d="M1.49,837.81c82.79-30,142.51-47.17,189.91-56,51-9.54,86.84-6.16,126.72-8.67,35.87-2.26,67.66-4.53,90.52-2.14,19.73,2.06,35,5.34,47.06,10.13,38,15.09,56.31,43.19,111.42,66.34a404.8,404.8,0,0,0,42.09,15.11c45.91,13.48,87.2,15.33,141.5,19.48,7.11.54,16,.79,26.43,1.49,48.8,3.25,100.12,8.06,161-4.07,30.28-6,33.53-7,56.48-11.74,4.7-1,10.2-2.11,16.77-3.73,83-20.34,152.25-21.39,187.5-31.07,1.71-.47,12.33.19,22.53-.28,30.53-1.39,64.48,8.31,97.38,25.77,94.57,50.18,200,159.1,237.31,221.15"/><path class="cls-24" d="M1.49,849.16C81.91,816.16,141.71,795.81,190,784c51.55-12.64,89.23-12.83,128.42-16.28,35.87-3.15,66.91-4.9,89.69-2,19.24,2.45,34.21,6.4,46.14,11.89,37.16,17.09,55.4,48.63,109.32,73.89a337.65,337.65,0,0,0,41.49,16.27c45.23,14.26,85.79,15.74,140.19,19.18,7,.44,15.81.6,26.25,1.11,46,2.24,98.43,5,160.32-8.77,30.87-6.89,33.33-8.2,56-13.51,4.61-1.08,10-2.31,16.58-4,84-21.51,152.74-20.61,186.1-29.33,1.37-.36,12.08-.15,22.38.18,29.91.93,63.4,10.17,96.22,28.24,95.9,52.82,202.19,164.28,236.33,218.69"/><path class="cls-25" d="M1.49,860.5c78.06-35.93,138-59.51,187.14-74.33,52.17-15.73,91.61-19.51,130.12-23.88,35.85-4.06,66.16-5.28,88.85-1.87,18.76,2.83,33.44,7.46,45.22,13.65,36.31,19.09,54.49,54.06,107.22,81.44a290.23,290.23,0,0,0,40.88,17.43c44.57,15,84.39,16.17,138.9,18.89,6.8.34,15.62-.22,26,.72,43.12,3.9,96.74,2,159.63-13.47,31.44-7.75,33.13-9.45,55.45-15.27,4.52-1.18,9.87-2.52,16.4-4.26,85-22.7,153.2-19.82,184.68-27.59,1-.26,11.85.09,22.24.63,29.26,1.52,62.32,12,95.07,30.73,97.19,55.46,204.38,169.44,235.34,216.22"/><path class="cls-26" d="M1.49,871.85c75.69-38.91,135.76-65.68,185.75-83.48,52.83-18.81,94-26.21,131.82-31.48,35.83-5,65.42-5.68,88-1.73,18.26,3.19,32.68,8.51,44.28,15.4,35.5,21.07,53.59,59.49,105.13,89a254.14,254.14,0,0,0,40.28,18.59c43.9,15.8,83,16.62,137.6,18.59,6.65.24,15.38-.22,25.85.34,40.48,2.17,95-1,158.93-18.17,32-8.61,32.93-10.69,54.94-17,4.43-1.28,9.71-2.72,16.21-4.52,86-23.9,153.65-19,183.28-25.85.69-.16,11.62.32,22.08,1.08,28.64,2.1,61.23,13.92,93.92,33.22,98.46,58.13,206.59,174.61,234.36,213.75"/><path class="cls-27" d="M1.49,883.19c73.33-41.89,133.57-71.83,184.37-92.62,53.52-21.9,96.33-32.92,133.52-39.08,35.79-5.94,64.67-6.1,87.19-1.6,17.79,3.56,31.93,9.56,43.36,17.16,34.71,23.06,52.68,64.92,103,96.55a230.36,230.36,0,0,0,39.68,19.74c43.28,16.49,81.59,17.1,136.3,18.3,6.5.14,15.16.11,25.67,0,37.8-.55,93.32-4.1,158.23-22.87,32.59-9.52,32.74-11.91,54.42-18.8,4.35-1.37,9.55-2.92,16-4.79,87-25.12,154.08-18.23,181.87-24.12.35-.07,11.4.55,21.94,1.55,28,2.65,60.13,15.79,92.77,35.7,99.7,60.81,208.78,179.77,233.37,211.28"/><path class="cls-28" d="M1.49,894.54c275.06-173.93,392.15-171.47,447-131,41.69,30.76,59.06,92.07,140,125,42.59,17.32,80.19,17.6,135,18,27.49.2,97.35-1.32,183-28,39.8-12.4,31-14,69.75-25.62,88-26.35,154-22.38,180.46-22.38,0,0,11.17.76,21.79,2,112.22,13.13,295.68,215.42,324,247"/><path class="cls-29" d="M1328,1c16.17,74.43,46.26,105.2,72.17,119.19,36.39,19.64,57.44,10.75,131.16,15.91,49,3.44,101.31,15.74,133.29,53,42.2,49.22,36.92,95,59.71,158.43C1744,402.42,1792.06,475.18,1922,540"/><path class="cls-30" d="M1922,531.43c-128.27-61.53-177.16-131.68-197.87-184.71q-2.3-5.94-4.27-11.67c-19.13-55.36-18.59-97-57.62-142.13a130.39,130.39,0,0,0-34.74-28c-28.58-16.19-62.66-23.53-95.1-26.61s-54.32-3.19-71.78-4.33c-20.63-1.34-35.35-3.63-54-14.67-24.82-14.66-52.95-45.92-68-118.35"/><path class="cls-31" d="M1922,522.85c-126.61-58.22-176.37-125.76-198.06-177q-2.4-5.73-4.47-11.26c-20-53.46-21-93.78-59.6-137.9a136.64,136.64,0,0,0-34.26-27.78c-28-16.39-60.93-24.52-92.14-28.33s-52.1-4.6-68.82-6.31c-19.74-2-34-4.36-51.63-15.76-23.78-15.37-49.93-47.08-64-117.47"/><path class="cls-32" d="M1922,514.27C1797,459.35,1746.25,394.48,1723.72,345c-1.67-3.67-3.21-7.3-4.66-10.86-20.94-51.55-23.45-90.51-61.59-133.67a144,144,0,0,0-33.77-27.6c-27.5-16.59-59.2-25.51-89.17-30s-49.87-6-65.87-8.3c-18.84-2.69-32.66-5.11-49.24-16.85-22.75-16.13-46.87-48.26-59.82-116.69"/><path class="cls-33" d="M1922,505.7C1798.67,454,1747,391.84,1723.52,344.16c-1.74-3.54-3.33-7-4.84-10.46-21.86-49.65-25.89-87.24-63.58-129.44a152.86,152.86,0,0,0-33.3-27.42c-26.94-16.8-57.44-26.5-86.2-31.76-28.61-5.23-47.63-7.42-62.91-10.28-17.93-3.36-31.32-5.89-46.84-18C1404.08,99.94,1382,67.43,1370.13,1"/><path class="cls-34" d="M1922,497.12c-121.66-48.31-174.24-107.92-198.65-153.81q-2.71-5.1-5-10.06c-22.77-47.75-28.23-84-65.57-125.21A161.74,161.74,0,0,0,1620,180.8c-26.4-17-55.69-27.48-83.23-33.48-27.3-5.94-45.38-8.82-60-12.27-17-4-30-6.71-44.45-19-20.8-17.74-40.8-50.59-51.6-115"/><path class="cls-35" d="M1922,488.54c-120-45-173.49-102-198.85-146.08-1.88-3.26-3.59-6.49-5.23-9.65-23.67-45.86-30.65-80.8-67.56-121A172.87,172.87,0,0,0,1618,184.76c-25.85-17.2-53.91-28.46-80.26-35.19-26-6.64-43.11-10.22-57-14.26-16.08-4.67-28.64-7.57-42-20.13C1418.84,96.57,1401,63.42,1391.21,1"/><path class="cls-36" d="M1922,480c-118.36-41.71-172.73-96.05-199-138.36-1.94-3.12-3.72-6.22-5.42-9.25-24.58-44-33.06-77.54-69.54-116.76a188.13,188.13,0,0,0-31.85-26.88,276.53,276.53,0,0,0-77.29-36.91c-24.64-7.33-40.84-11.6-54-16.24-15.14-5.31-27.3-8.47-39.66-21.22-19-19.54-34.83-52.93-43.48-113.31"/><path class="cls-37" d="M1922,471.39c-116.71-38.41-172-90.1-199.24-130.63-2-3-3.85-6-5.61-8.85-25.49-42.05-35.49-74.28-71.54-112.53a206.49,206.49,0,0,0-31.36-26.7A295.06,295.06,0,0,0,1539.9,154c-23.29-8-38.55-13-51.08-18.23-14.19-5.94-25.94-9.41-37.27-22.32C1433.54,93,1419.86,59.42,1412.29,1"/><path class="cls-38" d="M1922,462.81c-115.06-35.1-171.2-84.16-199.44-122.9-2.07-2.84-4-5.68-5.8-8.45-26.4-40.15-37.92-71-73.53-108.3a230.23,230.23,0,0,0-30.88-26.52c-24.21-17.81-48.54-31.32-71.36-40.34-21.93-8.67-36.25-14.34-48.12-20.21-13.23-6.54-24.56-10.4-34.87-23.41C1440.9,91.13,1429.33,57.42,1422.83,1"/><path class="cls-39" d="M1922,454.23C1808.57,422.43,1751.56,376,1722.34,339c-2.13-2.7-4.1-5.4-6-8C1689,292.79,1676,263.28,1640.83,227a263.6,263.6,0,0,0-30.4-26.34c-23.67-18-46.74-32.25-68.39-42.06-20.58-9.31-33.94-15.67-45.17-22.19-12.26-7.12-23.15-11.42-32.48-24.51-16.13-22.63-25.61-56.42-31-110.84"/><path class="cls-40" d="M1922,445.66c-111.75-28.5-169.64-72.29-199.83-107.45-2.21-2.56-4.24-5.13-6.18-7.64-28.22-36.36-42.77-64.51-77.51-99.85a306,306,0,0,0-29.92-26.16c-23.11-18.22-44.91-33.16-65.42-43.77-19.22-9.94-31.63-17-42.21-24.18-11.29-7.68-21.72-12.48-30.08-25.6-15.16-23.77-22.58-57.59-26.93-110"/><path class="cls-41" d="M1922,437c-110.1-25.2-168.85-66.35-200-99.72-2.27-2.43-4.36-4.86-6.37-7.24-29.13-34.45-45.2-61.24-79.5-95.62a372.24,372.24,0,0,0-29.43-26c-22.57-18.43-43.09-34-62.45-45.49-17.86-10.54-29.32-18.28-39.26-26.17-10.33-8.19-20.26-13.56-27.69-26.69-14.14-25-19.53-58.75-22.81-109.17"/><path class="cls-42" d="M1922,428.5c-108.45-21.89-168.06-60.42-200.23-92-2.33-2.29-4.49-4.59-6.56-6.84-30-32.55-47.63-58-81.48-91.39-9.21-9.08-19-17.49-29-25.8-22-18.63-41.26-34.91-59.49-47.2-16.49-11.12-27-19.56-36.29-28.16s-18.77-14.68-25.3-27.78C1470.61,83.14,1467.18,49.42,1465,1"/><path class="cls-43" d="M1922,419.93c-106.8-18.6-167.26-54.5-200.42-84.27-2.4-2.15-4.62-4.32-6.76-6.44-30.94-30.65-50.06-54.71-83.47-87.16-9.15-8.88-18.82-17.23-28.47-25.62-21.47-18.83-39.44-35.75-56.51-48.92A251.68,251.68,0,0,1,1513,137.38c-8.45-9.16-17.24-15.81-22.91-28.87C1478.17,81,1476.65,47.42,1475.52,1"/><path class="cls-44" d="M1922,411.35c-105.15-15.29-166.46-48.58-200.62-76.54-2.46-2-4.74-4-6.94-6-31.85-28.75-52.5-51.43-85.47-82.93-9.09-8.68-18.59-17-28-25.44-20.93-19-37.63-36.55-53.55-50.64A229.09,229.09,0,0,1,1517,137.68c-7.53-9.61-15.67-17-20.51-30C1485.81,78.9,1486.11,45.42,1486.06,1"/><path class="cls-45" d="M1922,402.77c-103.5-12-165.64-42.66-200.82-68.81-2.51-1.88-4.87-3.78-7.13-5.63-32.76-26.86-54.94-48.17-87.45-78.71-9-8.48-18.37-16.71-27.5-25.26-20.4-19.24-35.85-37.32-50.6-52.32a215.27,215.27,0,0,1-27.42-34.11c-6.65-10.05-14.07-18.12-18.12-31.06-9.42-30.09-7.38-63.42-6.35-105.84"/><path class="cls-46" d="M1922,394.2c-101.85-8.69-164.83-36.76-201-61.1-2.57-1.73-5-3.5-7.32-5.22-33.66-24.95-57.37-44.9-89.44-74.48-9-8.28-18.14-16.45-27-25.09-19.84-19.43-34.06-38.07-47.61-54.06a207.17,207.17,0,0,1-24.47-36.09c-5.78-10.48-12.43-19.27-15.72-32.16-8-31.41-4.34-64.58-2.25-105"/><path class="cls-47" d="M1922,385.62c-100.2-5.39-164-30.86-201.21-53.37-2.64-1.59-5.13-3.23-7.52-4.82-34.57-23.05-59.81-41.62-91.43-70.24-8.92-8.09-17.91-16.2-26.53-24.92-19.29-19.64-32.34-38.8-44.65-55.77-9.87-13.62-15.85-25.62-21.51-38.08-5-10.91-10.77-20.42-13.33-33.25-6.53-32.73-1.3-65.76,1.87-104.17"/><path class="cls-48" d="M1922,377c-98.55-2.08-163.19-25-201.41-45.64-2.7-1.46-5.25-3-7.7-4.42-35.49-21.15-62.26-38.34-93.42-66-8.87-7.88-17.7-15.94-26.06-24.74-18.74-19.84-30.64-39.51-41.67-57.49-8.63-14.06-13.71-26.81-18.56-40.07-4.14-11.33-9.08-21.54-10.93-34.34-4.94-34,1.73-66.92,6-103.33"/><path class="cls-49" d="M1922,368.47c-96.89,1.21-162.37-19.09-201.61-37.92-2.76-1.32-5.38-2.69-7.89-4-36.39-19.25-64.71-35.06-95.41-61.78a307.25,307.25,0,0,1-25.57-24.56c-18.2-20-29-40.21-38.71-59.21-7.41-14.5-11.6-28-15.59-42.05-3.36-11.78-7.37-22.66-8.55-35.43-3.25-35.31,4.78-68.09,10.1-102.5"/><path class="cls-50" d="M1922,359.89c-95.24,4.52-161.55-13.21-201.8-30.19-2.83-1.19-5.51-2.42-8.09-3.62-37.3-17.34-67.15-31.77-97.4-57.55a238.6,238.6,0,0,1-25.08-24.38c-17.65-20.25-27.41-40.92-35.74-60.92-6.23-14.95-9.52-29.24-12.64-44-2.59-12.24-5.64-23.75-6.15-36.53-1.48-36.58,7.8-69.29,14.2-101.66"/><path class="cls-51" d="M1922,351.31c-93.59,7.82-160.73-7.34-202-22.46-2.88-1.05-5.64-2.15-8.27-3.21-38.21-15.45-69.61-28.5-99.39-53.33a194.69,194.69,0,0,1-24.61-24.2c-17.1-20.45-25.85-41.64-32.77-62.64-5.08-15.41-7.45-30.48-9.68-46-1.83-12.72-3.89-24.82-3.76-37.62.4-37.73,10.85-70.42,18.33-100.83"/><path class="cls-52" d="M1922,342.73c-91.94,11.13-159.91-1.49-202.2-14.73-2.94-.92-5.76-1.88-8.46-2.81-39.12-13.55-72.06-25.21-101.38-49.1a161.45,161.45,0,0,1-24.12-24c-16.56-20.65-24.34-42.38-29.81-64.35-4-15.9-5.39-31.74-6.72-48-1.08-13.22-2.13-25.87-1.36-38.71,2.32-38.86,13.89-71.59,22.43-100"/><path class="cls-53" d="M1922,334.16c-90.29,14.42-159.1,4.36-202.39-7-3-.79-5.89-1.6-8.66-2.41-40-11.65-74.51-21.91-103.37-44.87A137.87,137.87,0,0,1,1583.92,256c-16-20.86-22.86-43.14-26.83-66.07-2.84-16.4-3.35-33-3.77-50-.34-13.74-.36-26.89,1-39.81,4.32-39.93,16.93-72.75,26.55-99.16"/><path class="cls-54" d="M1922,325.58c-88.64,17.73-158.28,10.13-202.59.72-3.07-.67-6-1.33-8.85-2-40.93-9.75-77-18.58-105.35-40.64A118.6,118.6,0,0,1,1582,260c-15.46-21.06-21.41-43.94-23.87-67.78-1.75-16.94-1.3-34.3-.81-52a329.51,329.51,0,0,1,3.43-40.9c6.34-40.94,20-73.92,30.66-98.33"/><path class="cls-55" d="M1922,317c-93,22.49-167.17,15.22-211.82,6.84-54.59-10.23-101.92-19.82-130-59.89-25.47-36.31-22.17-79.15-18.75-123.47,4.77-62,25.12-110,40.59-139.48"/><g class="cls-56"><polygon class="cls-57" points="1728.59 872.4 1728.59 806.75 1728.59 806.75 1728.59 778.8 1708.83 759.04 1708.83 759.05 1708.83 786.99 1708.83 786.99 1708.83 892.17 1718.71 892.17 1718.71 892.17 1786.01 892.17 1786.01 892.16 1766.26 872.4 1728.59 872.4"/><polygon class="cls-57" points="1748.35 798.56 1748.35 826.51 1790.04 868.2 1790.04 840.25 1748.35 798.56"/><polygon class="cls-57" points="1871.25 759.05 1871.25 759.04 1790.04 840.25 1790.04 868.2 1851.49 806.75 1851.49 892.17 1871.25 872.4 1871.25 786.99 1871.25 786.99 1871.25 759.05"/></g></svg>